HIERARCHY
ROOT Hips
{
     OFFSET 1.88212 96.90440 -13.34250
     CHANNELS 6 Xposition Yposition Zposition Zrotation Xrotation Yrotation
     JOINT Spine
     {
          OFFSET 0.00000 11.89050 0.00000
          CHANNELS 3 Zrotation Xrotation Yrotation
          JOINT Spine1
          {
               OFFSET -0.00000 25.65740 0.12766
               CHANNELS 3 Zrotation Xrotation Yrotation
               JOINT HEad
               {
                    OFFSET 0.00000 8.73416 0.01134
                    CHANNELS 3 Zrotation Xrotation Yrotation
                    End Site
                    {
                         OFFSET -0.29000 12.77420 2.51395
                    }
               }
               JOINT LeftShoulder1
               {
                    OFFSET 8.99000 -0.36225 -0.22000
                    CHANNELS 3 Zrotation Xrotation Yrotation
                    JOINT LeftArm
                    {
                         OFFSET 10.28270 -0.00338 0.32212
                         CHANNELS 3 Zrotation Xrotation Yrotation
                         JOINT LeftForeArm
                         {
                              OFFSET 32.76690 0.09914 -1.42434
                              CHANNELS 3 Zrotation Xrotation Yrotation
                              JOINT LeftHand
                              {
                                   OFFSET 27.56430 0.08536 1.02216
                                   CHANNELS 3 Zrotation Xrotation Yrotation
                                   End Site
                                   {
                                        OFFSET 16.74430 -0.60000 1.50291
                                   }
                              }
                         }
                    }
               }
               JOINT RightShoulder
               {
                    OFFSET -8.99000 -0.36225 -0.22000
                    CHANNELS 3 Zrotation Xrotation Yrotation
                    JOINT RightArm
                    {
                         OFFSET -10.28270 -0.00338 0.32212
                         CHANNELS 3 Zrotation Xrotation Yrotation
                         JOINT RightForeArm
                         {
                              OFFSET -32.89710 0.09914 -1.42434
                              CHANNELS 3 Zrotation Xrotation Yrotation
                              JOINT RightHand
                              {
                                   OFFSET -27.49210 0.08536 1.02216
                                   CHANNELS 3 Zrotation Xrotation Yrotation
                                   End Site
                                   {
                                        OFFSET -16.63120 -0.60000 1.50291
                                   }
                              }
                         }
                    }
               }
          }
     }
     JOINT LeftUpLeg
     {
          OFFSET 8.94580 -8.66707 0.10165
          CHANNELS 3 Zrotation Xrotation Yrotation
          JOINT LeftLeg
          {
               OFFSET 0.00000 -44.42270 1.37270
               CHANNELS 3 Zrotation Xrotation Yrotation
               JOINT LeftFoot
               {
                    OFFSET -0.25355 -42.09240 -1.46059
                    CHANNELS 3 Zrotation Xrotation Yrotation
                    JOINT LeftToes
                    {
                         OFFSET -0.04000 -4.41509 8.49910
                         CHANNELS 3 Zrotation Xrotation Yrotation
                         End Site
                         {
                              OFFSET 0.08000 -0.04745 9.77979
                         }
                    }
               }
          }
     }
     JOINT RightUpLeg
     {
          OFFSET -8.94580 -8.66707 0.10165
          CHANNELS 3 Zrotation Xrotation Yrotation
          JOINT RightLeg
          {
               OFFSET 0.00000 -44.42270 1.37270
               CHANNELS 3 Zrotation Xrotation Yrotation
               JOINT RightFoot
               {
                    OFFSET 0.25355 -42.09240 -1.46059
                    CHANNELS 3 Zrotation Xrotation Yrotation
                    JOINT RightToes
                    {
                         OFFSET 0.04000 -4.41509 8.49910
                         CHANNELS 3 Zrotation Xrotation Yrotation
                         End Site
                         {
                              OFFSET -0.08000 -0.13745 9.77979
                         }
                    }
               }
          }
     }
}
MOTION
Frames: 6
Frame Time: 0.01667
24.72379 66.79185 -139.88370 11.93784 -1.00306 -18.34150 -7.78237 32.23651 -4.56238 -0.00777 0.02365 0.00520 2.60397 -10.08671 17.75359 -7.96827 12.53409 -1.75407 -100.17032 -59.50181 -62.54257 -46.16387 60.65736 -97.33572 6.64049 10.61152 -3.30865 14.15665 14.25981 2.98115 63.54997 -20.75167 67.40723 26.73137 46.94064 112.82370 -5.24859 6.82476 -1.04025 20.07350 -44.22533 -18.89002 -12.71846 47.70530 17.94303 -4.68809 0.00857 -0.00188 -8.72950 -11.66928 10.98289 -48.24123 -34.88431 -20.19338 -26.42136 80.01184 16.03544 55.37701 0.05455 0.06000 -51.88855 -62.03730 -0.79561 
21.98261 67.55297 -139.79306 11.32788 -1.61194 -19.27575 -7.89509 30.50430 -5.38455 -0.00756 0.02114 0.00358 2.40397 -9.32036 19.18766 -8.85185 13.19259 -0.47777 -100.15445 -60.73185 -62.72198 -47.33353 61.00394 -97.03910 6.70223 10.39897 -3.28644 13.69140 15.30471 3.52113 61.57358 -22.10593 70.88772 24.34950 45.37555 111.87801 6.41396 29.39970 -2.41033 22.59364 -40.68627 -20.23917 -14.13963 44.67426 21.31470 -7.03946 0.02530 0.00437 -13.74488 -15.40306 5.03876 -47.18714 -33.33751 -20.71350 -15.07078 80.87041 6.20887 58.79997 0.04968 0.05362 -56.57296 -64.49406 0.66758 
19.15940 68.52394 -139.69368 10.54457 -2.17811 -20.17508 -8.12128 28.69375 -6.04409 -0.00601 0.02262 0.00609 2.32632 -8.19105 20.62134 -9.82514 13.79079 1.03519 -106.48856 -60.03588 -71.01325 -51.86629 61.39041 -94.34940 6.20629 10.74220 1.50548 10.82765 5.26311 1.04515 60.44468 -14.22234 64.40536 23.08302 44.37615 111.16898 3.78860 15.37831 -8.16546 24.78745 -37.28342 -21.58649 -14.94044 41.86516 24.21784 -9.47967 0.02057 0.00091 -9.27694 -11.16869 7.43378 -45.68198 -31.34763 -20.34452 3.18040 79.53529 -9.29890 61.83667 -0.00797 0.04356 -63.59961 -65.54765 -0.35995 
16.30204 69.71079 -139.60069 9.61673 -2.66790 -21.03404 -8.45942 26.78216 -6.51826 -0.00693 0.02320 0.00616 2.35600 -6.70619 21.99519 -9.73556 4.27494 -4.30868 -92.98215 -68.50704 -55.78359 -55.16241 61.77720 -92.34896 5.99665 10.86650 3.99719 10.94166 7.49433 2.04737 59.18849 -15.24750 66.02579 22.31432 43.85133 110.82363 1.18185 20.09147 -1.22667 26.34608 -33.69542 -21.93148 -16.25466 40.73390 27.97545 -17.61573 0.25866 -0.02257 -3.56475 -12.35480 4.24320 -43.78078 -28.94347 -19.11590 16.64958 76.40027 -18.91906 65.19453 -0.04801 0.07508 -73.04899 -65.51836 -3.77885 
13.43378 71.12442 -139.49794 8.58771 -3.06360 -21.84667 -8.89783 24.79226 -6.81160 -0.00587 0.02710 0.00687 2.46018 -4.93689 23.26906 -9.89784 6.21056 -2.49411 -98.75042 -68.09436 -62.62867 -57.50805 62.05532 -90.43082 7.53123 7.53397 -13.04603 11.27969 9.56058 2.92840 57.99102 -15.93830 66.87022 21.93305 43.37706 110.44865 0.12409 12.70978 -4.95938 27.19819 -30.42201 -21.36777 -17.98071 41.21693 31.47204 -18.38178 0.12168 0.02721 -10.60099 0.10805 10.11324 -41.46724 -26.17792 -17.04097 24.17122 72.25153 -21.78362 69.23724 -0.08022 0.13141 -83.91702 -64.39252 -8.63027 
10.57507 72.76488 -139.35327 7.50311 -3.35779 -22.60256 -9.41103 22.73378 -6.91984 -0.00359 0.02941 0.00736 2.60151 -2.93502 24.39884 -9.73172 8.04338 -1.01270 -103.15271 -67.59947 -67.72079 -59.22680 62.21020 -88.50769 6.17297 10.54548 2.86164 11.90787 11.51882 3.66073 56.75843 -16.45355 67.22348 21.74949 42.92743 110.21082 -1.36177 15.74187 -0.74449 27.40019 -27.74170 -19.90488 -19.80675 42.78592 34.44808 -24.54399 0.26869 -0.10616 -0.18953 -9.55250 1.83549 -38.79269 -23.07726 -14.18538 26.07095 66.77409 -19.73470 46.91447 0.56038 -0.51532 -35.02149 -58.99704 22.37702 
